<?xml version="1.0" encoding="UTF-8"?>
<svg width="98px" height="80px" viewBox="0 0 98 80" version="1.1" xmlns="http://www.w3.org/2000/svg" xmlns:xlink="http://www.w3.org/1999/xlink">
    <!-- Generator: Sketch 46.2 (44496) - http://www.bohemiancoding.com/sketch -->
    <title>imgLogoWhite</title>
    <desc>Created with Sketch.</desc>
    <defs></defs>
    <g id="Page-1" stroke="none" stroke-width="1" fill="none" fill-rule="evenodd">
        <g id="Artboard-2" transform="translate(-328.000000, -40.000000)">
            <g id="imgLogoWhite" transform="translate(328.000000, 40.000000)">
                <path class="letter" d="M15.5,48 L12,48 C12,41.3333333 12,37.3333333 12,36 C12,34 10.3333333,33.5 7,34.5 L7,48 L0,48 L0,31.5 C3.33333333,29.8333333 6.66666667,29 10,29 C10.5250824,29 12.9801455,29 15.1936202,30.1581702 C17.4624135,29.3860567 19.7312067,29 22,29 C23,29 31,29 31,37 C31,39.6666667 31,43.3333333 31,48 L24,48 C24,41.3333333 24,37.3333333 24,36 C24,34 22.3333333,33.5 19,34.5 L19,48 L15.5,48 Z" id="Combined-Shape" fill="#FFFFFF"></path>
                <circle id="Oval" fill="#FFFFFF" cx="34.5" cy="25.5" r="3.5"></circle>
                <path d="M38,40 C38,48 46,48 47,48 C50.3333333,48 53.6666667,47.1666667 57,45.5 L57,29 L50,29 L50,42.5 C46.6666667,43.5 45,43 45,41 C45,39.6666667 45,35.6666667 45,29 L38,29 C38,33.6666667 38,37.3333333 38,40 Z" id="Combined-Shape" fill="#FFFFFF" transform="translate(47.500000, 38.500000) scale(-1, -1) translate(-47.500000, -38.500000) "></path>
                <path d="M60,42 C60,50 68,50 69,50 C72.3333333,50 75.6666667,49.1666667 79,47.5 L79,31 L72,31 L72,44.5 C68.6666667,45.5 67,45 67,43 C67,41.6666667 67,37.6666667 67,31 L60,31 C60,35.6666667 60,39.3333333 60,42 Z" id="Combined-Shape" fill="#FFFFFF"></path>
                <path d="M87,38 L98,38 C98,40.6666667 98,42.5 98,43.5 C98,45 98,50 91,50 C89.6666667,50 86.6666667,50 82,50 L82,45 C88,45 91,45 91,45 C92.3333333,45 93,44.5 93,43.5 L93,43 L82,43 L82,31 L98,31 L98,36 L87,36 L87,38 Z" id="5" fill="#CA1524"></path>
            </g>
        </g>
    </g>
</svg>